<svg viewBox="0 0 35 54" xmlns="http://www.w3.org/2000/svg"><path d="m0 0h35v54h-35z" fill="none"/><path d="m8 41v7.67a1.44 1.44 0 0 0 1.25 1.33h1.15.28a1.5 1.5 0 0 0 1.32-1.53v-.2-2.44-5.83a10.56 10.56 0 0 1 -4 .77s0 .11 0 .23zm3.73-14a8.16 8.16 0 0 0 -4.5 1.28 11.06 11.06 0 0 0 -3.35 2.86 6.08 6.08 0 0 1 2.12 1 5.93 5.93 0 0 1 1.71 1.78 6.68 6.68 0 0 1 1.23 3 4.76 4.76 0 0 1 0 1.8 3.52 3.52 0 0 1 -.19.71 11.71 11.71 0 0 0 3.37-.79l.28-.16a13.43 13.43 0 0 0 2.38-1.87l.1-.12a5.58 5.58 0 0 0 1.6-3.41 6.42 6.42 0 0 0 -1.15-4c-1.56-1.88-2.88-2.08-3.59-2.08zm2.27 4.24-2.16 1.56a.87.87 0 0 1 -1.22-.19v-.06a.89.89 0 0 1 .19-1.23l2.12-1.57a.87.87 0 0 1 1.22.19v.06a.89.89 0 0 1 -.15 1.24zm-5.9 6a6.72 6.72 0 0 0 -1.35-3 5.61 5.61 0 0 0 -1.38-1.51 3.33 3.33 0 0 0 -1.55-.64 2.29 2.29 0 0 0 -1.29.16 4.41 4.41 0 0 0 -2.18 2.25 4.73 4.73 0 0 0 -.35 1.5 3.92 3.92 0 0 0 .13 1.2 4.47 4.47 0 0 0 .19.54 6 6 0 0 0 .68 1.17 5.53 5.53 0 0 0 1.19 1.28 4.1 4.1 0 0 0 2.81.81 3.81 3.81 0 0 0 1.59-.42 2.32 2.32 0 0 0 1.13-1 3.4 3.4 0 0 0 .35-2.32zm-4.67 2.2a2.68 2.68 0 0 1 -1.72-1.26 2.68 2.68 0 0 1 -.54-2c.14-.46.67-.45 1 0l1.64 2.26c.25.47.06 1.04-.38 1zm23.57 1.56c0-.13 0-.21 0-.24a10.56 10.56 0 0 1 -4-.76v5.83 2.44.2a1.5 1.5 0 0 0 1.32 1.53h.28 1.15a1.44 1.44 0 0 0 1.25-1.31s0-6.31 0-7.67zm-1-2.25a4.76 4.76 0 0 1 0-1.8 6.68 6.68 0 0 1 1.23-3 5.93 5.93 0 0 1 1.77-1.81 6.08 6.08 0 0 1 2.12-1 11.06 11.06 0 0 0 -3.35-2.86 8.16 8.16 0 0 0 -4.51-1.28c-.72 0-2 .19-3.61 2.08a6.42 6.42 0 0 0 -1.15 4 5.58 5.58 0 0 0 1.6 3.41l.1.12a13.43 13.43 0 0 0 2.38 1.87l.28.16a11.71 11.71 0 0 0 3.37.79 3.52 3.52 0 0 1 -.23-.67zm-1.61-6.21v.06a.87.87 0 0 1 -1.22.19l-2.17-1.55a.89.89 0 0 1 -.16-1.24v-.06a.87.87 0 0 1 1.22-.19l2.12 1.57a.89.89 0 0 1 .24 1.23zm10.23 2a4.41 4.41 0 0 0 -2.15-2.22 2.29 2.29 0 0 0 -1.29-.16 3.33 3.33 0 0 0 -1.55.64 5.61 5.61 0 0 0 -1.38 1.51 6.72 6.72 0 0 0 -1.35 3 3.4 3.4 0 0 0 .36 2.32 2.32 2.32 0 0 0 1.13 1 3.81 3.81 0 0 0 1.61.37 4.1 4.1 0 0 0 2.8-.8 5.53 5.53 0 0 0 1.2-1.29 6 6 0 0 0 .67-1.17 4.48 4.48 0 0 0 .19-.54 3.92 3.92 0 0 0 .14-1.2 4.73 4.73 0 0 0 -.35-1.5zm-1.36 3.68a2.68 2.68 0 0 1 -1.72 1.26c-.44 0-.63-.53-.34-1l1.64-2.26c.29-.48.82-.49 1 0a2.68 2.68 0 0 1 -.55 1.96z" fill="#f5f5f7"/></svg>